<?xml version="1.0" encoding="UTF-8"?> <svg xmlns="http://www.w3.org/2000/svg" width="139" height="50" viewBox="0 0 139 50"><path fill="#fff" d="M42.87 24.49V7.9h3.48v16.59zm1.61-13.65V7.9h7.95v2.94zm0 7.32v-2.87h7.23v2.87zm9.79 6.33V7.9h3.53v16.59zm5.39 0V7.9h5.53c.63 0 1.23.05 1.82.16s1.13.28 1.63.53c.5.24.95.56 1.33.94s.69.85.9 1.4.32 1.18.32 1.9c0 .54-.08 1.04-.22 1.51q-.225.705-.69 1.26c-.31.37-.72.68-1.22.93s-1.11.43-1.82.53v.28c.84.07 1.49.26 1.96.59s.82.76 1.06 1.29q.36.81.6 1.89l.76 3.39h-3.73l-.57-3.04c-.1-.59-.24-1.09-.43-1.51s-.45-.74-.79-.96-.8-.33-1.4-.33h-1.58v5.83h-3.48Zm3.48-8.4h1.68c.92 0 1.62-.22 2.1-.67.48-.44.72-1.13.72-2.08s-.22-1.57-.65-2c-.44-.43-1.11-.64-2.04-.64h-1.8v5.38Zm15.07 8.73c-1.06 0-1.97-.14-2.74-.41-.77-.28-1.4-.67-1.88-1.17s-.81-1.1-1.01-1.78c-.2-.69-.26-1.44-.2-2.26l3.16-.63c-.03.72.05 1.35.25 1.87.2.53.51.94.95 1.23s.97.44 1.59.44c.46 0 .86-.07 1.21-.21.34-.14.62-.35.81-.63q.3-.42.3-1.02c0-.52-.14-.95-.43-1.29s-.68-.64-1.17-.91c-.49-.26-1.06-.52-1.68-.77-.61-.24-1.21-.48-1.79-.76-.59-.27-1.11-.59-1.59-.97s-.85-.84-1.14-1.38q-.42-.825-.42-1.95c0-.94.22-1.75.65-2.44.44-.69 1.07-1.23 1.9-1.62s1.83-.59 3-.59c1.27 0 2.33.22 3.17.67.85.44 1.48 1.06 1.91 1.85q.645 1.185.54 2.79l-3.16.58q.045-.675-.09-1.26c-.09-.39-.25-.72-.47-.99-.22-.28-.49-.49-.81-.64s-.7-.23-1.15-.23-.83.07-1.15.21-.57.34-.74.59-.26.55-.26.88c0 .45.14.84.43 1.14.29.31.67.57 1.15.78s.99.41 1.53.62c.61.24 1.22.5 1.83.79s1.16.64 1.67 1.04c.5.4.9.91 1.21 1.51.3.6.46 1.33.46 2.19 0 .92-.21 1.74-.64 2.45s-1.07 1.27-1.94 1.67q-1.29.6-3.27.6Zm6.76-14.03V7.9h11.09v2.89zm3.78 13.7V7.9h3.51v16.59zM42.84 44.26V27.67h3.53v16.59zm5.4 0V27.67h4.35l5.33 11.46h.2L58 27.67h3.33v16.59h-4.12l-5.56-11.82h-.2l.12 11.82zM63.17 30.6v-2.94h11.09v2.94zm3.78 13.66V27.67h3.51v16.59zm9.16 0V27.67h3.48v16.59zm2.37-13.71v-2.89h7.46v2.89zm0 6.61V34.5h6.57v2.66zm0 7.1v-2.89h7.48v2.89zm9.31 0V27.67h5.53c.63 0 1.23.05 1.82.16s1.13.28 1.63.53c.5.24.95.56 1.33.94.39.39.69.85.9 1.4s.32 1.18.32 1.9c0 .54-.08 1.04-.22 1.51q-.225.705-.69 1.26c-.31.37-.72.68-1.22.93s-1.11.43-1.82.53v.28c.84.07 1.49.26 1.96.59s.82.76 1.06 1.29.44 1.17.6 1.89l.77 3.39h-3.73l-.57-3.04c-.1-.59-.24-1.09-.43-1.51s-.45-.74-.79-.96-.8-.33-1.4-.33h-1.58v5.83h-3.48Zm3.48-8.4h1.68c.92 0 1.62-.22 2.1-.67.48-.44.72-1.13.72-2.08s-.22-1.57-.65-2c-.44-.43-1.11-.64-2.04-.64h-1.8v5.38Zm9.42 8.4V27.67h4.35l5.33 11.46h.2l-.12-11.46h3.33v16.59h-4.12l-5.55-11.82h-.2l.12 11.82h-3.33Zm14.94 0V27.67h3.48v16.59zM118 30.55v-2.89h7.46v2.89zm0 6.61V34.5h6.57v2.66zm0 7.1v-2.89h7.48v2.89zm9.33-13.71v-2.89h11.09v2.89zm3.78 13.71V27.67h3.51v16.59z"></path><path fill="#fb8fa7" stroke="#000" stroke-linecap="round" stroke-linejoin="round" stroke-width=".89" d="M1.58 15.58C.9 15.18.47 14.45.47 13.66V6.32c0-.79.42-1.52 1.11-1.92L7.93.74c.68-.4 1.53-.4 2.21 0l6.36 3.67c.68.4 1.11 1.13 1.11 1.92v7.34c0 .79-.42 1.52-1.11 1.92l-6.36 3.67c-.68.4-1.53.4-2.21 0l-6.36-3.67Z"></path><path fill="#f44705" d="m7.89 9.34-6.3-3.63C.95 5.34.44 5.64.44 6.37v7.28c0 .73.51 1.63 1.15 1.99l6.29 3.63c.64.37 1.15.07 1.15-.66v-7.28c0-.73-.51-1.63-1.15-1.99Z"></path><path fill="#313131" d="m10.19 9.34 6.29-3.63c.64-.37 1.15-.07 1.15.66v7.28c0 .73-.51 1.63-1.15 1.99l-6.29 3.63c-.64.37-1.15.07-1.15-.66v-7.28c0-.73.51-1.63 1.15-1.99"></path><path fill="none" stroke="#000" stroke-linecap="round" stroke-width=".89" d="M9.04 10.55v7.64"></path><path fill="none" stroke="#000" stroke-linecap="round" stroke-linejoin="round" stroke-width=".89" d="M1.58 15.58C.9 15.18.47 14.45.47 13.66V6.32c0-.79.42-1.52 1.11-1.92L7.93.74c.68-.4 1.53-.4 2.21 0l6.36 3.67c.68.4 1.11 1.13 1.11 1.92v7.34c0 .79-.42 1.52-1.11 1.92l-6.36 3.67c-.68.4-1.53.4-2.21 0l-6.36-3.67Z"></path><path d="M10.31 9.39c-.79.45-1.76.45-2.54 0L5.83 8.27h.44l1.61.93c.72.42 1.61.42 2.32 0l1.61-.93h.44L10.3 9.39Z"></path><path d="m10.31 9.39.17.29zm-2.54 0-.17.29zM5.82 8.26v-.33c-.15 0-.28.1-.32.25s.02.3.15.37zm.45 0 .17-.29a.33.33 0 0 0-.17-.04zm1.61.94-.17.29zm2.32 0 .17.29zm1.62-.94v-.33c-.06 0-.12.02-.17.04zm.44 0 .17.29c.13-.08.19-.23.15-.37a.33.33 0 0 0-.32-.25zm-1.95 1.13-.17-.29c-.68.4-1.53.4-2.21 0l-.17.29-.17.29c.89.51 1.99.51 2.88 0l-.17-.29Zm-2.54 0 .17-.29L6 7.98l-.17.29-.17.29L7.6 9.68zM5.82 8.26v.33h.44v-.66h-.44zm.45 0-.17.29 1.61.93.17-.29.17-.29-1.61-.93zm1.61.94-.17.29c.82.47 1.83.47 2.66 0l-.17-.29-.17-.29c-.62.36-1.38.36-1.99 0l-.17.29Zm2.32 0 .17.29 1.61-.93-.17-.29-.17-.29-1.61.93zm1.62-.94v.33h.44v-.66h-.44zm.44 0-.17-.29-1.95 1.12.17.29.17.29 1.95-1.12z"></path><path d="M7.89 9.2c.79.45 1.27 1.29 1.27 2.2v2.25l-.22-.38v-1.86c0-.83-.44-1.6-1.16-2.01l-1.61-.93-.22-.38L7.9 9.21Z"></path><path d="m7.89 9.2.17-.29zm1.27 2.21h.33zm0 2.24-.29.17c.08.13.23.19.37.15a.33.33 0 0 0 .25-.32zm-.22-.38h-.33c0 .06.02.12.04.17zm0-1.86h.33zM7.78 9.39l.17-.29zm-1.62-.93-.29.17q.045.075.12.12zm-.22-.38.17-.29a.33.33 0 0 0-.4.05.32.32 0 0 0-.05.4l.29-.17ZM7.89 9.2l-.17.29c.68.4 1.11 1.13 1.11 1.92h.66c0-1.03-.55-1.98-1.44-2.49l-.17.29Zm1.27 2.21h-.33v2.25h.66v-2.25zm0 2.24.29-.17-.22-.38-.29.17-.29.17.22.38zm-.22-.38h.33v-1.86h-.66v1.86zm0-1.86h.33c0-.95-.51-1.83-1.33-2.3l-.17.29-.17.29c.62.36 1 1.01 1 1.73h.33ZM7.78 9.39l.17-.29-1.61-.93-.17.29-.17.29 1.61.93zm-1.62-.93.29-.17-.22-.38-.29.17-.29.17.22.38zm-.22-.38-.17.29 1.95 1.12.17-.29.17-.29-1.95-1.12z"></path><path d="M10.22 9.19c-.79.45-1.27 1.29-1.27 2.2v2.25l.22-.38V11.4c0-.83.44-1.6 1.16-2.01l1.61-.93.22-.38-1.95 1.12Z"></path><path d="m10.22 9.19.17.29zm-1.28 2.2h-.33zm0 2.25.29.17c-.08.13-.23.19-.37.15a.33.33 0 0 1-.25-.32zm.22-.38h.33c0 .06-.02.12-.04.17zm0-1.87h-.33zm1.17-2.01-.17-.29zm1.61-.93.29.17q-.045.075-.12.12zm.22-.39-.17-.29c.13-.08.29-.05.4.05.11.11.13.27.05.4l-.29-.17Zm-1.94 1.13.17.29c-.68.4-1.11 1.13-1.11 1.92h-.66c0-1.03.55-1.98 1.44-2.49l.17.29Zm-1.28 2.2h.33v2.25h-.66v-2.25zm0 2.25-.29-.17.22-.38.29.17.29.17-.22.38zm.22-.38h-.33V11.4h.66v1.86zm0-1.87h-.33c0-.95.51-1.83 1.33-2.3l.17.29.17.29c-.62.36-1 1.01-1 1.73h-.33Zm1.17-2.01-.17-.29 1.61-.93.17.29.17.29-1.61.93zm1.61-.93-.29-.17.22-.38.29.17.29.17-.22.38zm.22-.39.17.29-1.95 1.12-.17-.29-.17-.29 1.95-1.12z"></path><path fill="none" stroke="#000" stroke-linecap="round" stroke-width=".89" d="m11.29 8.65 4.86-2.81M6.8 8.64 1.93 5.83"></path><path fill="#fb8fa7" stroke="#000" stroke-linecap="round" stroke-linejoin="round" stroke-width=".89" d="M1.55 35.25c-.68-.4-1.11-1.13-1.11-1.92v-7.34c0-.79.42-1.52 1.11-1.92l6.36-3.67c.68-.4 1.53-.4 2.21 0l6.36 3.67c.68.4 1.11 1.13 1.11 1.92v7.34c0 .79-.42 1.52-1.11 1.92l-6.36 3.67c-.68.4-1.53.4-2.21 0z"></path><path fill="#f44705" d="m7.86 29.01-6.29-3.63c-.64-.37-1.15-.07-1.15.66v7.28c0 .73.51 1.63 1.15 1.99l6.29 3.63c.64.37 1.15.07 1.15-.66V31c0-.73-.51-1.63-1.15-1.99"></path><path fill="#313131" d="m10.16 29.01 6.29-3.63c.64-.37 1.15-.07 1.15.66v7.28c0 .73-.51 1.63-1.15 1.99l-6.29 3.63c-.64.37-1.15.07-1.15-.66V31c0-.73.51-1.63 1.15-1.99"></path><path fill="none" stroke="#000" stroke-linecap="round" stroke-width=".89" d="M9.01 30.22v7.64"></path><path fill="none" stroke="#000" stroke-linecap="round" stroke-linejoin="round" stroke-width=".89" d="M1.55 35.25c-.68-.4-1.11-1.13-1.11-1.92v-7.34c0-.79.42-1.52 1.11-1.92l6.36-3.67c.68-.4 1.53-.4 2.21 0l6.36 3.67c.68.4 1.11 1.13 1.11 1.92v7.34c0 .79-.42 1.52-1.11 1.92l-6.36 3.67c-.68.4-1.53.4-2.21 0z"></path><path d="M10.28 29.06c-.79.45-1.76.45-2.54 0L5.8 27.94h.44l1.61.93c.72.42 1.61.41 2.32 0l1.61-.93h.44l-1.95 1.12Z"></path><path d="m10.28 29.06.17.29zm-2.54 0-.17.29zm-1.95-1.13v-.33c-.15 0-.28.1-.32.25s.02.3.15.37zm.45 0 .17-.29a.33.33 0 0 0-.17-.04zm1.61.94-.17.29zm2.32 0 .17.29zm1.62-.94v-.33c-.06 0-.12.02-.17.04zm.44 0 .17.29c.13-.08.19-.23.15-.37a.33.33 0 0 0-.32-.25zm-1.95 1.13-.17-.29c-.68.4-1.53.4-2.21 0l-.17.29-.17.29c.89.51 1.99.51 2.88 0l-.17-.29Zm-2.54 0 .17-.29-1.94-1.12-.17.29-.17.29 1.94 1.12zm-1.95-1.13v.33h.44v-.66h-.44zm.45 0-.17.29 1.61.93.17-.29.17-.29-1.61-.93zm1.61.94-.17.29c.82.47 1.83.47 2.66 0l-.17-.29-.17-.29c-.62.36-1.38.36-1.99 0l-.17.29Zm2.32 0 .17.29 1.61-.93-.17-.29-.17-.29-1.61.93zm1.62-.94v.33h.44v-.66h-.44zm.44 0-.17-.29-1.95 1.12.17.29.17.29 1.95-1.12z"></path><path d="M7.86 28.87c.79.45 1.27 1.29 1.27 2.2v2.25l-.22-.38v-1.86c0-.83-.44-1.6-1.16-2.01l-1.61-.93-.22-.38 1.95 1.12Z"></path><path d="m7.86 28.87.17-.29zm1.27 2.21h.33zm0 2.24-.29.17c.08.13.23.19.37.15a.33.33 0 0 0 .25-.32zm-.22-.38h-.33c0 .06.02.12.04.17zm0-1.86h.33zm-1.16-2.02.17-.29zm-1.62-.93-.29.17q.045.075.12.12zm-.22-.38.17-.29a.33.33 0 0 0-.4.05.32.32 0 0 0-.05.4l.29-.17Zm1.95 1.12-.17.29c.68.4 1.11 1.13 1.11 1.92h.66c0-1.03-.55-1.98-1.44-2.49l-.17.29Zm1.27 2.21H8.8v2.25h.66v-2.25zm0 2.24.29-.17-.22-.38-.29.17-.29.17.22.38zm-.22-.38h.33v-1.86h-.66v1.86zm0-1.86h.33c0-.95-.51-1.83-1.33-2.3l-.17.29-.17.29c.62.36 1 1.01 1 1.73h.33Zm-1.16-2.02.17-.29-1.61-.93-.17.29-.17.29 1.61.93zm-1.62-.93.29-.17-.22-.38-.29.17-.29.17.22.38zm-.22-.38-.17.29 1.95 1.12.17-.29.17-.29-1.95-1.12z"></path><path d="M10.19 28.86c-.79.45-1.27 1.29-1.27 2.2v2.25l.22-.38v-1.86c0-.83.44-1.6 1.16-2.01l1.61-.93.22-.38-1.95 1.12Z"></path><path d="m10.19 28.86.17.29zm-1.28 2.2h-.33zm0 2.25.29.17c-.08.13-.23.19-.37.15a.33.33 0 0 1-.25-.32zm.22-.38h.33c0 .06-.02.12-.04.17zm0-1.87H8.8zm1.17-2.01-.17-.29zm1.61-.93.29.17q-.045.075-.12.12zm.22-.38-.17-.29c.13-.08.29-.05.4.05.11.11.13.27.05.4l-.29-.17Zm-1.94 1.12.17.29c-.68.4-1.11 1.13-1.11 1.92h-.66c0-1.03.55-1.98 1.44-2.49l.17.29Zm-1.28 2.2h.33v2.25h-.66v-2.25zm0 2.25-.29-.17.22-.38.29.17.29.17-.22.38zm.22-.38H8.8v-1.86h.66v1.86zm0-1.87H8.8c0-.95.51-1.83 1.33-2.3l.17.29.17.29c-.62.36-1 1.01-1 1.73h-.33Zm1.17-2.01-.17-.29 1.61-.93.17.29.17.29-1.61.93zm1.61-.93-.29-.17.22-.38.29.17.29.17-.22.38zm.22-.38.17.29-1.95 1.12-.17-.29-.17-.29 1.95-1.12z"></path><path fill="none" stroke="#000" stroke-linecap="round" stroke-width=".89" d="m11.26 28.32 4.86-2.8m-9.35 2.79L1.9 25.5"></path><path fill="#fb8fa7" stroke="#000" stroke-linecap="round" stroke-linejoin="round" stroke-width=".89" d="M10.12 40.2c-.68-.4-1.11-1.13-1.11-1.92v-7.34c0-.79.42-1.52 1.11-1.92l6.36-3.67c.68-.4 1.53-.4 2.21 0l6.36 3.67c.68.4 1.11 1.13 1.11 1.92v7.34c0 .79-.42 1.52-1.11 1.92l-6.36 3.67c-.68.4-1.53.4-2.21 0z"></path><path fill="#f44705" d="m16.43 33.96-6.29-3.63c-.64-.37-1.15-.07-1.15.66v7.28c0 .73.51 1.63 1.15 1.99l6.29 3.63c.64.37 1.15.07 1.15-.66v-7.28c0-.73-.51-1.63-1.15-1.99"></path><path fill="#313131" d="m18.73 33.96 6.29-3.63c.64-.37 1.15-.07 1.15.66v7.28c0 .73-.51 1.63-1.15 1.99l-6.29 3.63c-.64.37-1.15.07-1.15-.66v-7.28c0-.73.51-1.63 1.15-1.99"></path><path fill="none" stroke="#000" stroke-linecap="round" stroke-width=".89" d="M17.58 35.17v7.64"></path><path fill="none" stroke="#000" stroke-linecap="round" stroke-linejoin="round" stroke-width=".89" d="M10.12 40.2c-.68-.4-1.11-1.13-1.11-1.92v-7.34c0-.79.42-1.52 1.11-1.92l6.36-3.67c.68-.4 1.53-.4 2.21 0l6.36 3.67c.68.4 1.11 1.13 1.11 1.92v7.34c0 .79-.42 1.52-1.11 1.92l-6.36 3.67c-.68.4-1.53.4-2.21 0z"></path><path d="M18.85 34c-.79.45-1.76.45-2.54 0l-1.94-1.12h.44l1.61.93c.72.42 1.61.42 2.32 0l1.61-.93h.44L18.84 34Z"></path><path d="m18.85 34 .17.29zm-2.54 0-.17.29zm-1.94-1.12v-.33c-.15 0-.28.1-.32.25s.02.3.15.37zm.44 0 .17-.29a.33.33 0 0 0-.17-.04zm1.61.93-.17.29zm2.32 0 .17.29zm1.62-.93v-.33c-.06 0-.12.02-.17.04zm.44 0 .17.29c.13-.08.19-.23.15-.37a.33.33 0 0 0-.32-.25zM18.85 34l-.17-.29c-.68.4-1.53.4-2.21 0l-.17.29-.17.29c.89.51 1.99.51 2.88 0l-.17-.29Zm-2.54 0 .17-.29-1.94-1.12-.17.29-.17.29 1.94 1.12zm-1.94-1.12v.33h.44v-.66h-.44zm.44 0-.17.29 1.61.93.17-.29.17-.29-1.61-.93zm1.61.93-.17.29c.82.47 1.83.47 2.66 0l-.17-.29-.17-.29c-.62.36-1.38.36-1.99 0l-.17.29Zm2.32 0 .17.29 1.61-.93-.17-.29-.17-.29-1.61.93zm1.62-.93v.33h.44v-.66h-.44zm.44 0-.17-.29-1.95 1.12.17.29.17.29 1.95-1.12z"></path><path d="M16.43 33.82c.79.45 1.27 1.29 1.27 2.2v2.24l-.22-.38v-1.86c0-.83-.44-1.6-1.16-2.01l-1.61-.93-.22-.38z"></path><path d="m16.43 33.82.17-.29zm1.27 2.2h.33zm0 2.25-.29.17c.08.13.23.19.37.15a.33.33 0 0 0 .25-.32zm-.22-.38h-.33c0 .06.02.12.04.17zm0-1.86h.33zm-1.16-2.02.17-.29zm-1.61-.93-.29.17q.045.075.12.12zm-.22-.38.17-.29a.33.33 0 0 0-.4.05.32.32 0 0 0-.05.4l.29-.17Zm1.94 1.12-.17.29c.68.4 1.11 1.13 1.11 1.92h.66c0-1.03-.55-1.98-1.44-2.49l-.17.29Zm1.27 2.2h-.33v2.24h.66v-2.24zm0 2.25.29-.17-.22-.38-.29.17-.29.17.22.38zm-.22-.38h.33v-1.86h-.66v1.86zm0-1.86h.33c0-.95-.51-1.83-1.33-2.3l-.17.29-.17.29c.62.36 1 1.01 1 1.73h.33Zm-1.16-2.02.17-.29-1.61-.93-.17.29-.17.29 1.61.93zm-1.61-.93.29-.17-.22-.38-.29.17-.29.17.22.38zm-.22-.38-.17.29 1.94 1.12.17-.29.17-.29-1.94-1.12z"></path><path d="M18.75 33.81c-.79.45-1.27 1.29-1.27 2.2v2.25l.22-.38v-1.86c0-.83.44-1.6 1.16-2.01l1.61-.93.22-.38-1.95 1.12Z"></path><path d="m18.75 33.81-.17-.29zm-1.27 2.2h-.33zm0 2.25.29.17c-.08.13-.23.19-.37.15a.33.33 0 0 1-.25-.32zm.22-.39h.33c0 .06-.02.12-.04.17zm0-1.86h-.33zM18.87 34l-.17-.29zm1.61-.93.29.17q-.045.075-.12.12zm.22-.39-.17-.29c.13-.08.29-.05.4.05.11.11.13.27.05.4l-.29-.17Zm-1.95 1.13.17.29c-.68.4-1.11 1.13-1.11 1.92h-.66c0-1.03.55-1.98 1.44-2.49l.17.29Zm-1.27 2.2h.33v2.25h-.66v-2.25zm0 2.25-.29-.17.22-.38.29.17.29.17-.22.38zm.22-.39h-.33v-1.86h.66v1.86zm0-1.86h-.33c0-.95.51-1.83 1.33-2.3l.17.29.17.29c-.62.36-1 1.01-1 1.73h-.33ZM18.87 34l-.17-.29 1.61-.93.17.29.17.29-1.61.93zm1.61-.93-.29-.17.22-.38.29.17.29.17-.22.38zm.22-.39.17.29-1.95 1.12-.17-.29-.17-.29 1.95-1.12z"></path><path fill="none" stroke="#000" stroke-linecap="round" stroke-width=".89" d="m19.83 33.27 4.86-2.81m-9.35 2.8-4.87-2.81"></path><path fill="#fb8fa7" stroke="#000" stroke-linecap="round" stroke-linejoin="round" stroke-width=".89" d="M18.69 45.17c-.68-.4-1.11-1.13-1.11-1.92v-7.34c0-.79.42-1.52 1.11-1.92l6.36-3.67c.68-.4 1.53-.4 2.21 0l6.36 3.67c.68.4 1.11 1.13 1.11 1.92v7.34c0 .79-.42 1.52-1.11 1.92l-6.36 3.67c-.68.4-1.53.4-2.21 0z"></path><path fill="#f44705" d="m25 38.94-6.29-3.63c-.64-.37-1.15-.07-1.15.66v7.28c0 .73.51 1.63 1.15 1.99L25 48.87c.64.37 1.15.07 1.15-.66v-7.28c0-.73-.51-1.63-1.15-1.99"></path><path fill="#313131" d="m27.3 38.94 6.29-3.63c.64-.37 1.15-.07 1.15.66v7.28c0 .73-.51 1.63-1.15 1.99l-6.29 3.63c-.64.37-1.15.07-1.15-.66v-7.28c0-.73.51-1.63 1.15-1.99"></path><path fill="none" stroke="#000" stroke-linecap="round" stroke-width=".89" d="M26.15 40.14v7.64"></path><path fill="none" stroke="#000" stroke-linecap="round" stroke-linejoin="round" stroke-width=".89" d="M18.69 45.17c-.68-.4-1.11-1.13-1.11-1.92v-7.34c0-.79.42-1.52 1.11-1.92l6.36-3.67c.68-.4 1.53-.4 2.21 0l6.36 3.67c.68.4 1.11 1.13 1.11 1.92v7.34c0 .79-.42 1.52-1.11 1.92l-6.36 3.67c-.68.4-1.53.4-2.21 0z"></path><path d="M27.42 38.98c-.79.45-1.76.45-2.54 0l-1.94-1.12h.44l1.61.93c.72.42 1.61.42 2.32 0l1.61-.93h.44l-1.95 1.12Z"></path><path d="m27.42 38.98-.17-.29zm-2.54 0-.17.29zm-1.94-1.12v-.33c-.15 0-.28.1-.32.25s.02.3.15.37zm.44 0 .17-.29a.33.33 0 0 0-.17-.04zm1.61.93-.17.29zm2.32 0 .17.29zm1.62-.93v-.33c-.06 0-.12.02-.17.04zm.44 0 .17.29c.13-.08.19-.23.15-.37a.33.33 0 0 0-.32-.25zm-1.95 1.12-.17-.29c-.68.4-1.53.4-2.21 0l-.17.29-.17.29c.89.51 1.99.51 2.88 0l-.17-.29Zm-2.54 0 .17-.29-1.94-1.12-.17.29-.17.29 1.94 1.12zm-1.94-1.12v.33h.44v-.66h-.44zm.44 0-.17.29 1.61.93.17-.29.17-.29-1.61-.93zm1.61.93-.17.29c.82.47 1.83.47 2.66 0l-.17-.29-.17-.29c-.62.36-1.38.36-1.99 0l-.17.29Zm2.32 0 .17.29 1.61-.93-.17-.29-.17-.29-1.61.93zm1.62-.93v.33h.44v-.66h-.44zm.44 0-.17-.29-1.95 1.12.17.29.17.29 1.95-1.12z"></path><path d="M25 38.8c.79.45 1.27 1.29 1.27 2.2v2.24l-.22-.38V41c0-.83-.44-1.6-1.16-2.01l-1.61-.93-.22-.38z"></path><path d="m25 38.8.17-.29zm1.27 2.2h.33zm0 2.24-.29.17c.08.13.23.19.37.15a.33.33 0 0 0 .25-.32zm-.22-.38h-.33c0 .06.02.12.04.17zm0-1.86h.33zm-1.16-2.01.17-.29zm-1.61-.93-.29.17q.045.075.12.12zm-.22-.39.17-.29a.33.33 0 0 0-.4.05.32.32 0 0 0-.05.4l.29-.17ZM25 38.8l-.17.29c.68.4 1.11 1.13 1.11 1.92h.66c0-1.03-.55-1.98-1.44-2.49l-.17.29Zm1.27 2.2h-.33v2.24h.66V41zm0 2.24.29-.17-.22-.38-.29.17-.29.17.22.38zm-.22-.38h.33V41h-.66v1.86zm0-1.86h.33c0-.95-.51-1.83-1.33-2.3l-.17.29-.17.29c.62.36 1 1.01 1 1.73h.33Zm-1.16-2.01.17-.29-1.61-.93-.17.29-.17.29 1.61.93zm-1.61-.93.29-.17-.22-.38-.29.17-.29.17.22.38zm-.22-.39-.17.29 1.94 1.12.17-.29.17-.29-1.94-1.12z"></path><path d="M27.33 38.78c-.79.45-1.27 1.29-1.27 2.2v2.24l.22-.38v-1.86c0-.83.44-1.6 1.16-2.01l1.61-.93.22-.38z"></path><path d="m27.33 38.78-.17-.29zm-1.28 2.21h-.33zm0 2.24.29.17c-.08.13-.23.19-.37.15a.33.33 0 0 1-.25-.32zm.23-.38h.33c0 .06-.02.12-.04.17zm0-1.86h-.33zm1.16-2.02-.17-.29zm1.61-.93.29.17q-.045.075-.12.12zm.22-.38-.17-.29c.13-.08.29-.05.4.05.11.11.13.27.05.4l-.29-.17Zm-1.94 1.12.17.29c-.68.4-1.11 1.13-1.11 1.92h-.66c0-1.03.55-1.98 1.44-2.49l.17.29Zm-1.28 2.21h.33v2.24h-.66v-2.24zm0 2.24-.29-.17.22-.38.29.17.29.17-.22.38zm.23-.38h-.33v-1.86h.66v1.86zm0-1.86h-.33c0-.95.51-1.83 1.33-2.3l.17.29.17.29c-.62.36-1 1.01-1 1.73h-.33Zm1.16-2.02-.17-.29 1.61-.93.17.29.17.29-1.61.93zm1.61-.93-.29-.17.22-.38.29.17.29.17-.22.38zm.22-.38.17.29-1.94 1.12-.17-.29-.17-.29 1.94-1.12z"></path><path fill="none" stroke="#000" stroke-linecap="round" stroke-width=".89" d="m28.4 38.25 4.86-2.81m-9.35 2.79-4.87-2.8"></path><path fill="#fb8fa7" stroke="#000" stroke-linecap="round" stroke-linejoin="round" stroke-width=".89" d="M10.14 30.39c-.68-.4-1.11-1.13-1.11-1.92v-7.34c0-.79.42-1.52 1.11-1.92l6.36-3.67c.68-.4 1.53-.4 2.21 0l6.36 3.67c.68.4 1.11 1.13 1.11 1.92v7.34c0 .79-.42 1.52-1.11 1.92l-6.36 3.67c-.68.4-1.53.4-2.21 0z"></path><path fill="#f44705" d="m16.45 24.15-6.29-3.63c-.64-.37-1.15-.07-1.15.66v7.28c0 .73.51 1.63 1.15 1.99l6.29 3.63c.64.37 1.15.07 1.15-.66v-7.28c0-.73-.51-1.63-1.15-1.99"></path><path fill="#313131" d="m18.76 24.15 6.29-3.63c.64-.37 1.15-.07 1.15.66v7.28c0 .73-.51 1.63-1.15 1.99l-6.29 3.63c-.64.37-1.15.07-1.15-.66v-7.28c0-.73.51-1.63 1.15-1.99"></path><path fill="none" stroke="#000" stroke-linecap="round" stroke-width=".89" d="M17.61 25.36V33"></path><path fill="none" stroke="#000" stroke-linecap="round" stroke-linejoin="round" stroke-width=".89" d="M10.14 30.39c-.68-.4-1.11-1.13-1.11-1.92v-7.34c0-.79.42-1.52 1.11-1.92l6.36-3.67c.68-.4 1.53-.4 2.21 0l6.36 3.67c.68.4 1.11 1.13 1.11 1.92v7.34c0 .79-.42 1.52-1.11 1.92l-6.36 3.67c-.68.4-1.53.4-2.21 0z"></path><path d="M18.88 24.2c-.79.45-1.76.45-2.54 0l-1.94-1.12h.44l1.61.93c.72.42 1.61.42 2.32 0l1.61-.93h.44l-1.95 1.12Z"></path><path d="m18.88 24.2.17.29zm-2.55 0-.17.29zm-1.94-1.13v-.33c-.15 0-.28.1-.32.25s.02.3.15.37zm.44 0 .17-.29a.33.33 0 0 0-.17-.04zm1.62.93-.17.29zm2.32 0 .17.29zm1.61-.93v-.33c-.06 0-.12.02-.17.04zm.45 0 .17.29c.13-.08.19-.23.15-.37a.33.33 0 0 0-.32-.25zm-1.95 1.13-.17-.29c-.68.4-1.53.4-2.21 0l-.17.29-.17.29c.89.51 1.99.51 2.88 0l-.17-.29Zm-2.55 0 .17-.29-1.94-1.12-.17.29-.17.29 1.94 1.12zm-1.94-1.13v.33h.44v-.66h-.44zm.44 0-.17.29 1.61.93.17-.29.17-.29-1.61-.93zm1.62.93-.17.29c.82.47 1.83.47 2.66 0l-.17-.29-.17-.29c-.62.36-1.38.36-1.99 0l-.17.29Zm2.32 0 .17.29 1.61-.93-.17-.29-.17-.29-1.61.93zm1.61-.93v.33h.44v-.66h-.44zm.45 0-.17-.29-1.95 1.12.17.29.17.29L21 23.36z"></path><path d="M16.45 24.01c.79.45 1.27 1.29 1.27 2.2v2.25l-.22-.38v-1.86c0-.83-.44-1.6-1.16-2.01l-1.61-.93-.22-.38 1.95 1.12Z"></path><path d="m16.45 24.01.17-.29zm1.28 2.21h.33zm0 2.24-.29.17c.08.13.23.19.37.15a.33.33 0 0 0 .25-.32zm-.22-.38h-.33c0 .06.02.12.04.17zm0-1.86h.33zm-1.17-2.02.17-.29zm-1.61-.93-.29.17q.045.075.12.12zm-.22-.38.17-.29a.33.33 0 0 0-.4.05.32.32 0 0 0-.05.4l.29-.17Zm1.94 1.12-.17.29c.68.4 1.11 1.13 1.11 1.92h.66c0-1.03-.55-1.98-1.44-2.49l-.17.29Zm1.28 2.21h-.33v2.25h.66v-2.25zm0 2.24.29-.17-.22-.38-.29.17-.29.17.22.38zm-.22-.38h.33v-1.86h-.66v1.86zm0-1.86h.33c0-.95-.51-1.83-1.33-2.3l-.17.29-.17.29c.62.36 1 1.01 1 1.73h.33Zm-1.17-2.02.17-.29-1.61-.93-.17.29-.17.29 1.61.93zm-1.61-.93.29-.17-.22-.38-.29.17-.29.17.22.38zm-.22-.38-.17.29 1.95 1.12.17-.29.17-.29-1.95-1.12z"></path><path d="M18.78 24c-.79.45-1.27 1.29-1.27 2.2v2.24l.22-.38V26.2c0-.83.44-1.6 1.16-2.01l1.61-.93.22-.38z"></path><path d="m18.78 24-.17-.29zm-1.27 2.2h-.33zm0 2.24.29.17c-.08.13-.23.19-.37.15a.33.33 0 0 1-.25-.32zm.22-.38h.33c0 .06-.02.12-.04.17zm0-1.86h-.33zm1.16-2.01-.17-.29zm1.61-.93.29.17q-.045.075-.12.12zm.23-.38-.17-.29c.13-.08.29-.05.4.05.11.11.13.27.05.4l-.29-.17ZM18.78 24l.17.29c-.68.4-1.11 1.13-1.11 1.92h-.66c0-1.03.55-1.98 1.44-2.49l.17.29Zm-1.27 2.2h.33v2.24h-.66V26.2zm0 2.24-.29-.17.22-.38.29.17.29.17-.22.38zm.22-.38h-.33V26.2h.66v1.86zm0-1.86h-.33c0-.95.51-1.83 1.33-2.3l.17.29.17.29c-.62.36-1 1.01-1 1.73h-.33Zm1.16-2.01-.17-.29 1.61-.93.17.29.17.29-1.61.93zm1.61-.93-.29-.17.22-.38.29.17.29.17-.22.38zm.23-.38.17.29-1.94 1.12-.17-.29-.17-.29 1.94-1.12z"></path><path fill="none" stroke="#000" stroke-linecap="round" stroke-width=".89" d="m19.85 23.46 4.87-2.81m-9.36 2.8-4.86-2.81"></path><path fill="#fb8fa7" stroke="#000" stroke-linecap="round" stroke-linejoin="round" stroke-width=".89" d="M10.14 20.53c-.68-.4-1.11-1.13-1.11-1.92v-7.34c0-.79.42-1.52 1.11-1.92l6.36-3.67c.68-.4 1.53-.4 2.21 0l6.36 3.67c.68.4 1.11 1.13 1.11 1.92v7.34c0 .79-.42 1.52-1.11 1.92l-6.36 3.67c-.68.4-1.53.4-2.21 0z"></path><path fill="#f44705" d="m16.45 14.29-6.29-3.63c-.64-.37-1.15-.07-1.15.66v7.28c0 .73.51 1.63 1.15 1.99l6.29 3.63c.64.37 1.15.07 1.15-.66v-7.28c0-.73-.51-1.63-1.15-1.99"></path><path fill="#313131" d="m18.76 14.29 6.29-3.63c.64-.37 1.15-.07 1.15.66v7.28c0 .73-.51 1.63-1.15 1.99l-6.29 3.63c-.64.37-1.15.07-1.15-.66v-7.28c0-.73.51-1.63 1.15-1.99"></path><path fill="none" stroke="#000" stroke-linecap="round" stroke-width=".89" d="M17.61 15.49v7.64"></path><path fill="none" stroke="#000" stroke-linecap="round" stroke-linejoin="round" stroke-width=".89" d="M10.14 20.53c-.68-.4-1.11-1.13-1.11-1.92v-7.34c0-.79.42-1.52 1.11-1.92l6.36-3.67c.68-.4 1.53-.4 2.21 0l6.36 3.67c.68.4 1.11 1.13 1.11 1.92v7.34c0 .79-.42 1.52-1.11 1.92l-6.36 3.67c-.68.4-1.53.4-2.21 0z"></path><path d="M18.88 14.33c-.79.45-1.76.45-2.54 0l-1.94-1.12h.44l1.61.93c.72.42 1.61.42 2.32 0l1.61-.93h.44l-1.95 1.12Z"></path><path d="m18.88 14.33.17.29zm-2.55 0-.17.29zm-1.94-1.12v-.33c-.15 0-.28.1-.32.25s.02.3.15.37zm.44 0 .17-.29a.33.33 0 0 0-.17-.04zm1.62.93-.17.29zm2.32 0 .17.29zm1.61-.93v-.33c-.06 0-.12.02-.17.04zm.45 0 .17.29c.13-.08.19-.23.15-.37a.33.33 0 0 0-.32-.25zm-1.95 1.12-.17-.29c-.68.4-1.53.4-2.21 0l-.17.29-.17.29c.89.51 1.99.51 2.88 0l-.17-.29Zm-2.55 0 .17-.29-1.94-1.12-.17.29-.17.29 1.94 1.12zm-1.94-1.12v.33h.44v-.66h-.44zm.44 0-.17.29 1.61.93.17-.29.17-.29-1.61-.93zm1.62.93-.17.29c.82.47 1.83.47 2.66 0l-.17-.29-.17-.29c-.62.36-1.38.36-1.99 0l-.17.29Zm2.32 0 .17.29 1.61-.93-.17-.29-.17-.29-1.61.93zm1.61-.93v.33h.44v-.66h-.44zm.45 0-.17-.29-1.95 1.12.17.29.17.29L21 13.5z"></path><path d="M16.45 14.15c.79.45 1.27 1.29 1.27 2.2v2.25l-.22-.38v-1.86c0-.83-.44-1.6-1.16-2.01l-1.61-.93-.22-.38 1.95 1.12Z"></path><path d="m16.45 14.15.17-.29zm1.28 2.2h.33zm0 2.25-.29.17c.08.13.23.19.37.15a.33.33 0 0 0 .25-.32zm-.22-.38h-.33c0 .06.02.12.04.17zm0-1.87h.33zm-1.17-2.01.17-.29zm-1.61-.93-.29.17q.045.075.12.12zm-.22-.38.17-.29a.33.33 0 0 0-.4.05.32.32 0 0 0-.05.4l.29-.17Zm1.94 1.12-.17.29c.68.4 1.11 1.13 1.11 1.92h.66c0-1.03-.55-1.98-1.44-2.49l-.17.29Zm1.28 2.2h-.33v2.25h.66v-2.25zm0 2.25.29-.17-.22-.38-.29.17-.29.17.22.38zm-.22-.38h.33v-1.86h-.66v1.86zm0-1.87h.33c0-.95-.51-1.83-1.33-2.3l-.17.29-.17.29c.62.36 1 1.01 1 1.73h.33Zm-1.17-2.01.17-.29-1.61-.93-.17.29-.17.29 1.61.93zm-1.61-.93.29-.17-.22-.38-.29.17-.29.17.22.38zm-.22-.38-.17.29 1.95 1.12.17-.29.17-.29-1.95-1.12z"></path><path d="M18.78 14.14c-.79.45-1.27 1.29-1.27 2.2v2.24l.22-.38v-1.86c0-.83.44-1.6 1.16-2.01l1.61-.93.22-.38z"></path><path d="m18.78 14.14-.17-.29zm-1.27 2.2h-.33zm0 2.24.29.17c-.08.13-.23.19-.37.15a.33.33 0 0 1-.25-.32zm.22-.38h.33c0 .06-.02.12-.04.17zm0-1.86h-.33zm1.16-2.01-.17-.29zm1.61-.93.29.17q-.045.075-.12.12zm.23-.39-.17-.29c.13-.08.29-.05.4.05.11.11.13.27.05.4l-.29-.17Zm-1.95 1.13.17.29c-.68.4-1.11 1.13-1.11 1.92h-.66c0-1.03.55-1.98 1.44-2.49l.17.29Zm-1.27 2.2h.33v2.24h-.66v-2.24zm0 2.24-.29-.17.22-.38.29.17.29.17-.22.38zm.22-.38h-.33v-1.86h.66v1.86zm0-1.86h-.33c0-.95.51-1.83 1.33-2.3l.17.29.17.29c-.62.36-1 1.01-1 1.73h-.33Zm1.16-2.01-.17-.29 1.61-.93.17.29.17.29-1.61.93zm1.61-.93-.29-.17.22-.38.29.17.29.17-.22.38zm.23-.39.17.29-1.94 1.12-.17-.29-.17-.29 1.94-1.12z"></path><path fill="none" stroke="#000" stroke-linecap="round" stroke-width=".89" d="m19.85 13.6 4.87-2.81m-9.36 2.8-4.86-2.81"></path><path fill="#fffbef" d="M28.87 45.95c-.28.16-.52.25-.72.28s-.37 0-.49-.1c-.13-.09-.21-.24-.27-.44q-.06-.255-.06-.6c0-.07.05-.15.1-.2l.56-.46c.09-.07.17-.04.17.06 0 .15.03.28.06.38.05.15.13.23.25.26.11.03.25 0 .42-.1a1.16 1.16 0 0 0 .53-.58c.05-.12.08-.25.08-.38 0-.17-.04-.29-.11-.36a.5.5 0 0 0-.31-.12c-.13-.01-.28-.01-.44 0s-.32.02-.47.02-.29-.03-.42-.08-.22-.15-.3-.29c-.07-.14-.11-.33-.11-.58 0-.31.06-.61.17-.91a2.95 2.95 0 0 1 1.29-1.48c.33-.19.61-.28.83-.26s.39.13.5.32q.15.255.15.72c0 .07-.05.16-.11.21l-.55.45c-.09.07-.17.04-.17-.06 0-.07-.01-.14-.02-.2a.6.6 0 0 0-.12-.26.3.3 0 0 0-.21-.09c-.08 0-.19.03-.3.1q-.18.105-.3.24c-.08.1-.15.2-.2.31s-.07.22-.07.33c0 .15.04.25.11.31.08.06.18.09.3.08.13 0 .26-.01.4-.03.16-.01.32-.02.48-.02s.31.04.44.09c.13.06.24.16.32.32.08.15.12.37.12.65 0 .3-.06.61-.17.91s-.28.58-.51.85c-.23.26-.51.5-.86.69Zm4.69-7.5c0 .09-.06.19-.14.23l-.73.42c-.07.04-.14.15-.14.23v4.22c0 .09-.06.19-.14.23l-.65.38c-.07.04-.14 0-.14-.08v-4.22c0-.09-.06-.12-.14-.08l-.72.42c-.07.04-.14 0-.14-.08v-.64c0-.09.06-.19.14-.23l2.64-1.53c.07-.04.14 0 .14.08v.64Z"></path></svg> 