<?xml version="1.0" encoding="UTF-8"?> <svg xmlns="http://www.w3.org/2000/svg" width="52" height="52" viewBox="0 0 52 52"><path fill="#fb8fa7" stroke="#000" stroke-linecap="round" stroke-linejoin="round" stroke-width=".89" d="M9.99 16.79c-.68-.4-1.11-1.13-1.11-1.92V7.53c0-.79.42-1.52 1.11-1.92l6.35-3.66c.68-.4 1.53-.4 2.21 0l6.36 3.67c.68.4 1.11 1.13 1.11 1.92v7.34c0 .79-.42 1.52-1.11 1.92l-6.36 3.67c-.68.4-1.53.4-2.21 0L9.98 16.8h.01Z"></path><path fill="#f44705" d="M16.3 10.55 10 6.92c-.64-.37-1.15-.07-1.15.66v7.28c0 .73.51 1.63 1.15 1.99l6.29 3.63c.64.37 1.15.07 1.15-.66v-7.28c0-.73-.51-1.63-1.15-1.99z"></path><path fill="#313131" d="m18.6 10.55 6.29-3.63c.64-.37 1.15-.07 1.15.66v7.28c0 .73-.51 1.63-1.15 1.99l-6.29 3.63c-.64.37-1.15.07-1.15-.66v-7.28c0-.73.51-1.63 1.15-1.99"></path><path fill="none" stroke="#000" stroke-linecap="round" stroke-width=".89" d="M17.45 11.76v7.64"></path><path fill="none" stroke="#000" stroke-linecap="round" stroke-linejoin="round" stroke-width=".89" d="M9.99 16.79c-.68-.4-1.11-1.13-1.11-1.92V7.53c0-.79.42-1.52 1.11-1.92l6.35-3.66c.68-.4 1.53-.4 2.21 0l6.36 3.67c.68.4 1.11 1.13 1.11 1.92v7.34c0 .79-.42 1.52-1.11 1.92l-6.36 3.67c-.68.4-1.53.4-2.21 0L9.98 16.8h.01Z"></path><path d="M18.72 10.6c-.79.45-1.76.45-2.54 0l-1.94-1.12h.44l1.61.93c.72.42 1.61.42 2.32 0l1.61-.93h.44l-1.95 1.12z"></path><path d="m18.72 10.6.17.29zm-2.54 0-.17.29zm-1.95-1.13v-.33c-.15 0-.28.1-.32.25s.02.3.15.37zm.45 0 .17-.29a.33.33 0 0 0-.17-.04zm1.61.94-.17.29zm2.32 0 .17.29zm1.62-.94v-.33c-.06 0-.12.02-.17.04zm.44 0 .17.29c.13-.08.19-.23.15-.37a.33.33 0 0 0-.32-.25zm-1.95 1.13-.17-.29c-.68.4-1.53.4-2.21 0l-.17.29-.17.29c.89.51 1.99.51 2.88 0l-.17-.29zm-2.54 0 .17-.29-1.94-1.12-.17.29-.17.29 1.94 1.12zm-1.95-1.13v.33h.44v-.66h-.44zm.45 0-.17.29 1.61.93.17-.29.17-.29-1.61-.93zm1.61.94-.17.29c.82.47 1.83.47 2.66 0l-.17-.29-.17-.29c-.62.36-1.38.36-1.99 0l-.17.29zm2.32 0 .17.29 1.61-.93-.17-.29-.17-.29-1.61.93zm1.62-.94v.33h.44v-.66h-.44zm.44 0-.17-.29-1.95 1.12.17.29.17.29 1.95-1.12z"></path><path d="M16.3 10.41c.79.45 1.27 1.29 1.27 2.2v2.25l-.22-.38v-1.86c0-.83-.44-1.6-1.16-2.01l-1.61-.93-.22-.38 1.95 1.12h-.01Z"></path><path d="m16.3 10.41.17-.29zm1.27 2.21h.33zm0 2.24-.29.17c.08.13.23.19.37.15a.33.33 0 0 0 .25-.32zm-.22-.38h-.33c0 .06.02.12.04.17zm0-1.86h.33zm-1.16-2.02.17-.29zm-1.62-.93-.29.17q.045.075.12.12zm-.22-.38.17-.29a.32.32 0 0 0-.4.05c-.11.1-.13.27-.05.4l.29-.17Zm1.95 1.12-.17.29c.68.4 1.11 1.13 1.11 1.92h.66c0-1.03-.55-1.98-1.44-2.49l-.17.29h.01Zm1.27 2.21h-.33v2.25h.66v-2.25zm0 2.24.29-.17-.22-.38-.29.17-.29.17.22.38zm-.22-.38h.33v-1.86h-.66v1.86zm0-1.86h.33c0-.95-.51-1.83-1.33-2.3l-.17.29-.17.29c.62.36 1 1.01 1 1.73h.34Zm-1.16-2.02.17-.29-1.61-.93-.17.29-.17.29 1.61.93zm-1.62-.93.29-.17-.22-.38-.29.17-.29.17.22.38zm-.22-.38-.17.29 1.95 1.12.17-.29.17-.29L14.52 9z"></path><path d="M18.63 10.4c-.79.45-1.27 1.29-1.27 2.2v2.25l.22-.38v-1.86c0-.83.44-1.6 1.16-2.01l1.61-.93.22-.38-1.95 1.12Z"></path><path d="m18.63 10.4.17.29zm-1.28 2.2h-.33zm0 2.25.29.17c-.08.13-.23.19-.37.15a.33.33 0 0 1-.25-.32zm.22-.38h.33c0 .06-.02.12-.04.17zm0-1.87h-.33zm1.17-2.01-.17-.29zm1.61-.93.29.17q-.045.075-.12.12zm.22-.39-.17-.29c.13-.08.29-.05.4.05.11.11.13.27.05.4l-.29-.17h.01Zm-1.94 1.13.17.29c-.68.4-1.11 1.13-1.11 1.92h-.66c0-1.03.55-1.98 1.44-2.49l.17.29h-.01Zm-1.28 2.2h.33v2.25h-.66V12.6zm0 2.25-.29-.17.22-.38.29.17.29.17-.22.38zm.23-.38h-.33v-1.86h.66v1.86zm0-1.87h-.33c0-.95.51-1.83 1.33-2.3l.17.29.17.29c-.62.36-1 1.01-1 1.73h-.34Zm1.17-2.01-.17-.29 1.61-.93.17.29.17.29-1.61.93zm1.6-.93-.29-.17.22-.38.29.17.29.17-.22.38zm.23-.39.17.29-1.95 1.12-.17-.29-.17-.29 1.95-1.12z"></path><path fill="none" stroke="#000" stroke-linecap="round" stroke-width=".89" d="m19.7 9.86 4.86-2.81m-9.35 2.8-4.87-2.81"></path><path fill="#fb8fa7" stroke="#000" stroke-linecap="round" stroke-linejoin="round" stroke-width=".89" d="M9.96 36.46c-.68-.4-1.11-1.13-1.11-1.92V27.2c0-.79.42-1.52 1.11-1.92l6.36-3.67c.68-.4 1.53-.4 2.21 0l6.36 3.67c.68.4 1.11 1.13 1.11 1.92v7.34c0 .79-.42 1.52-1.11 1.92l-6.36 3.67c-.68.4-1.53.4-2.21 0z"></path><path fill="#f44705" d="m16.27 30.22-6.29-3.63c-.64-.37-1.15-.07-1.15.66v7.28c0 .73.51 1.63 1.15 1.99l6.29 3.63c.64.37 1.15.07 1.15-.66v-7.28c0-.73-.51-1.63-1.15-1.99"></path><path fill="#313131" d="m18.57 30.22 6.29-3.63c.64-.37 1.15-.07 1.15.66v7.28c0 .73-.51 1.63-1.15 1.99l-6.29 3.63c-.64.37-1.15.07-1.15-.66v-7.28c0-.73.51-1.63 1.15-1.99"></path><path fill="none" stroke="#000" stroke-linecap="round" stroke-width=".89" d="M17.42 31.43v7.64"></path><path fill="none" stroke="#000" stroke-linecap="round" stroke-linejoin="round" stroke-width=".89" d="M9.96 36.46c-.68-.4-1.11-1.13-1.11-1.92V27.2c0-.79.42-1.52 1.11-1.92l6.36-3.67c.68-.4 1.53-.4 2.21 0l6.36 3.67c.68.4 1.11 1.13 1.11 1.92v7.34c0 .79-.42 1.52-1.11 1.92l-6.36 3.67c-.68.4-1.53.4-2.21 0z"></path><path d="M18.69 30.27c-.79.45-1.76.45-2.54 0l-1.94-1.12h.44l1.61.93c.72.42 1.61.41 2.32 0l1.61-.93h.44l-1.95 1.12z"></path><path d="m18.69 30.27.17.29zm-2.54 0-.17.29zm-1.95-1.13v-.33c-.15 0-.28.1-.32.25s.02.3.15.37zm.45 0 .17-.29a.33.33 0 0 0-.17-.04zm1.61.94-.17.29zm2.32 0 .17.29zm1.62-.94v-.33c-.06 0-.12.02-.17.04zm.44 0 .17.29c.13-.08.19-.23.15-.37a.33.33 0 0 0-.32-.25zm-1.95 1.13-.17-.29c-.68.4-1.53.4-2.21 0l-.17.29-.17.29c.89.51 1.99.51 2.88 0l-.17-.29zm-2.54 0 .17-.29-1.94-1.12-.17.29-.17.29 1.94 1.12zm-1.95-1.13v.33h.44v-.66h-.44zm.45 0-.17.29 1.61.93.17-.29.17-.29-1.61-.93zm1.61.94-.17.29c.82.47 1.83.47 2.66 0l-.17-.29-.17-.29c-.62.36-1.38.36-1.99 0l-.17.29Zm2.32 0 .17.29 1.61-.93-.17-.29-.17-.29-1.61.93zm1.62-.94v.33h.44v-.66h-.44zm.44 0-.17-.29-1.95 1.12.17.29.17.29 1.95-1.12z"></path><path d="M16.27 30.08c.79.45 1.27 1.29 1.27 2.2v2.25l-.22-.38v-1.86c0-.83-.44-1.6-1.16-2.01l-1.61-.93-.22-.38 1.95 1.12Z"></path><path d="m16.27 30.08.17-.29zm1.27 2.21h.33zm0 2.24-.29.17c.08.13.23.19.37.15a.33.33 0 0 0 .25-.32zm-.22-.38h-.33c0 .06.02.12.04.17zm0-1.86h.33zm-1.16-2.02.17-.29zm-1.62-.93-.29.17s.07.09.12.12zm-.22-.38.17-.29a.32.32 0 0 0-.4.05c-.11.1-.13.27-.05.4l.29-.17Zm1.95 1.12-.17.29c.68.4 1.11 1.13 1.11 1.92h.66c0-1.03-.55-1.98-1.44-2.49l-.17.29h.01Zm1.27 2.21h-.33v2.25h.66v-2.25zm0 2.24.29-.17-.22-.38-.29.17-.29.17.22.38zm-.22-.38h.33v-1.86h-.66v1.86zm0-1.86h.33c0-.95-.51-1.83-1.33-2.3l-.17.29-.17.29c.62.36 1 1.01 1 1.73h.34Zm-1.16-2.02.17-.29-1.61-.93-.17.29-.17.29 1.61.93zm-1.62-.93.29-.17-.22-.38-.29.17-.29.17.22.38zm-.22-.38-.17.29 1.95 1.12.17-.29.17-.29-1.95-1.12z"></path><path d="M18.6 30.07c-.79.45-1.27 1.29-1.27 2.2v2.25l.22-.38v-1.86c0-.83.44-1.6 1.16-2.01l1.61-.93.22-.38-1.95 1.12Z"></path><path d="m18.6 30.07.17.29zm-1.28 2.2h-.33zm0 2.25.29.17c-.08.13-.23.19-.37.15a.33.33 0 0 1-.25-.32zm.22-.38h.33c0 .06-.02.12-.04.17zm0-1.87h-.33zm1.17-2.01-.17-.29zm1.61-.93.29.17s-.07.09-.12.12zm.22-.38-.17-.29c.13-.08.29-.05.4.05.11.11.13.27.05.4l-.29-.17h.01Zm-1.94 1.12.17.29c-.68.4-1.11 1.13-1.11 1.92H17c0-1.03.55-1.98 1.44-2.49l.17.29h-.01Zm-1.28 2.2h.33v2.25h-.66v-2.25zm0 2.25-.29-.17.22-.38.29.17.29.17-.22.38zm.22-.38h-.33v-1.86h.66v1.86zm0-1.87h-.33c0-.95.51-1.83 1.33-2.3l.17.29.17.29c-.62.36-1 1.01-1 1.73h-.34Zm1.17-2.01-.17-.29 1.61-.93.17.29.17.29-1.61.93zm1.61-.93-.29-.17.22-.38.29.17.29.17-.22.38zm.22-.38.17.29-1.95 1.12-.17-.29-.17-.29 1.95-1.12z"></path><path fill="none" stroke="#000" stroke-linecap="round" stroke-width=".89" d="m19.67 29.53 4.86-2.8m-9.35 2.79-4.87-2.81"></path><path fill="#fb8fa7" stroke="#000" stroke-linecap="round" stroke-linejoin="round" stroke-width=".89" d="M18.53 41.41c-.68-.4-1.11-1.13-1.11-1.92v-7.34c0-.79.42-1.52 1.11-1.92l6.36-3.67c.68-.4 1.53-.4 2.21 0l6.36 3.67c.68.4 1.11 1.13 1.11 1.92v7.34c0 .79-.42 1.52-1.11 1.92l-6.36 3.67c-.68.4-1.53.4-2.21 0z"></path><path fill="#f44705" d="m24.84 35.17-6.29-3.63c-.64-.37-1.15-.07-1.15.66v7.28c0 .73.51 1.63 1.15 1.99l6.29 3.63c.64.37 1.15.07 1.15-.66v-7.28c0-.73-.51-1.63-1.15-1.99"></path><path fill="#313131" d="m27.14 35.17 6.29-3.63c.64-.37 1.15-.07 1.15.66v7.28c0 .73-.51 1.63-1.15 1.99l-6.29 3.63c-.64.37-1.15.07-1.15-.66v-7.28c0-.73.51-1.63 1.15-1.99"></path><path fill="none" stroke="#000" stroke-linecap="round" stroke-width=".89" d="M25.99 36.38v7.64"></path><path fill="none" stroke="#000" stroke-linecap="round" stroke-linejoin="round" stroke-width=".89" d="M18.53 41.41c-.68-.4-1.11-1.13-1.11-1.92v-7.34c0-.79.42-1.52 1.11-1.92l6.36-3.67c.68-.4 1.53-.4 2.21 0l6.36 3.67c.68.4 1.11 1.13 1.11 1.92v7.34c0 .79-.42 1.52-1.11 1.92l-6.36 3.67c-.68.4-1.53.4-2.21 0z"></path><path d="M27.26 35.21c-.79.45-1.76.45-2.54 0l-1.94-1.12h.44l1.61.93c.72.42 1.61.42 2.32 0l1.61-.93h.44l-1.95 1.12z"></path><path d="m27.26 35.21.17.29zm-2.54 0-.17.29zm-1.94-1.12v-.33c-.15 0-.28.1-.32.25s.02.3.15.37zm.44 0 .17-.29a.33.33 0 0 0-.17-.04zm1.61.93-.17.29zm2.32 0 .17.29zm1.62-.93v-.33c-.06 0-.12.02-.17.04zm.44 0 .17.29c.13-.08.19-.23.15-.37a.33.33 0 0 0-.32-.25zm-1.95 1.12-.17-.29c-.68.4-1.53.4-2.21 0l-.17.29-.17.29c.89.51 1.99.51 2.88 0l-.17-.29Zm-2.54 0 .17-.29-1.94-1.12-.17.29-.17.29 1.94 1.12zm-1.94-1.12v.33h.44v-.66h-.44zm.44 0-.17.29 1.61.93.17-.29.17-.29-1.61-.93zm1.61.93-.17.29c.82.47 1.83.47 2.66 0l-.17-.29-.17-.29c-.62.36-1.38.36-1.99 0l-.17.29zm2.32 0 .17.29 1.61-.93-.17-.29-.17-.29-1.61.93zm1.62-.93v.33h.44v-.66h-.44zm.44 0-.17-.29-1.95 1.12.17.29.17.29 1.95-1.12z"></path><path d="M24.84 35.03c.79.45 1.27 1.29 1.27 2.2v2.24l-.22-.38v-1.86c0-.83-.44-1.6-1.16-2.01l-1.61-.93-.22-.38z"></path><path d="m24.84 35.03.17-.29zm1.27 2.2h.33zm0 2.25-.29.17c.08.13.23.19.37.15a.33.33 0 0 0 .25-.32zm-.22-.38h-.33c0 .06.02.12.04.17zm0-1.86h.33zm-1.16-2.02.17-.29zm-1.6-.93-.29.17q.045.075.12.12zm-.22-.38.17-.29a.32.32 0 0 0-.4.05c-.11.1-.13.27-.05.4l.29-.17h-.01Zm1.94 1.12-.17.29c.68.4 1.11 1.13 1.11 1.92h.66c0-1.03-.55-1.98-1.44-2.49l-.17.29h.01Zm1.27 2.2h-.33v2.24h.66v-2.24zm0 2.25.29-.17-.22-.38-.29.17-.29.17.22.38zm-.22-.38h.33v-1.86h-.66v1.86zm0-1.86h.33c0-.95-.51-1.83-1.33-2.3l-.17.29-.17.29c.62.36 1 1.01 1 1.73h.34Zm-1.16-2.02.17-.29L23.3 34l-.17.29-.17.29 1.61.93zm-1.61-.93.29-.17-.22-.38-.29.17-.29.17.22.38zm-.22-.38-.17.29 1.94 1.12.17-.29.17-.29-1.94-1.12z"></path><path d="M27.16 35.02c-.79.45-1.27 1.29-1.27 2.2v2.25l.22-.38v-1.86c0-.83.44-1.6 1.16-2.01l1.61-.93.22-.38-1.95 1.12h.01Z"></path><path d="m27.16 35.02-.17-.29zm-1.27 2.2h-.33zm0 2.25.29.17c-.08.13-.23.19-.37.15a.33.33 0 0 1-.25-.32zm.22-.39h.33c0 .06-.02.12-.04.17zm0-1.86h-.33zm1.17-2.01-.17-.29zm1.61-.93.29.17s-.07.09-.12.12zm.22-.39-.17-.29c.13-.08.29-.05.4.05.11.11.13.27.05.4l-.29-.17h.01Zm-1.95 1.13.17.29c-.68.4-1.11 1.13-1.11 1.92h-.66c0-1.03.55-1.98 1.44-2.49l.17.29h-.01Zm-1.27 2.2h.33v2.25h-.66v-2.25zm0 2.25-.29-.17.22-.38.29.17.29.17-.22.38zm.22-.39h-.33v-1.86h.66v1.86zm0-1.86h-.33c0-.95.51-1.83 1.33-2.3l.17.29.17.29c-.62.36-1 1.01-1 1.73h-.34Zm1.17-2.01-.17-.29 1.61-.93.17.29.17.29-1.61.93zm1.61-.93-.29-.17.22-.38.29.17.29.17-.22.38zm.22-.39.17.29-1.95 1.12-.17-.29-.17-.29 1.95-1.12z"></path><path fill="none" stroke="#000" stroke-linecap="round" stroke-width=".89" d="m28.24 34.48 4.86-2.81m-9.35 2.8-4.87-2.81"></path><path fill="#fb8fa7" stroke="#000" stroke-linecap="round" stroke-linejoin="round" stroke-width=".89" d="M27.1 46.38c-.68-.4-1.11-1.13-1.11-1.92v-7.34c0-.79.42-1.52 1.11-1.92l6.36-3.67c.68-.4 1.53-.4 2.21 0l6.36 3.67c.68.4 1.11 1.13 1.11 1.92v7.34c0 .79-.42 1.52-1.11 1.92l-6.36 3.67c-.68.4-1.53.4-2.21 0z"></path><path fill="#f44705" d="m33.41 40.15-6.29-3.63c-.64-.37-1.15-.07-1.15.66v7.28c0 .73.51 1.63 1.15 1.99l6.29 3.63c.64.37 1.15.07 1.15-.66v-7.28c0-.73-.51-1.63-1.15-1.99"></path><path fill="#313131" d="M35.71 40.15 42 36.52c.64-.37 1.15-.07 1.15.66v7.28c0 .73-.51 1.63-1.15 1.99l-6.29 3.63c-.64.37-1.15.07-1.15-.66v-7.28c0-.73.51-1.63 1.15-1.99"></path><path fill="none" stroke="#000" stroke-linecap="round" stroke-width=".89" d="M34.56 41.35v7.64"></path><path fill="none" stroke="#000" stroke-linecap="round" stroke-linejoin="round" stroke-width=".89" d="M27.1 46.38c-.68-.4-1.11-1.13-1.11-1.92v-7.34c0-.79.42-1.52 1.11-1.92l6.36-3.67c.68-.4 1.53-.4 2.21 0l6.36 3.67c.68.4 1.11 1.13 1.11 1.92v7.34c0 .79-.42 1.52-1.11 1.92l-6.36 3.67c-.68.4-1.53.4-2.21 0z"></path><path d="M35.83 40.19c-.79.45-1.76.45-2.54 0l-1.94-1.12h.44l1.61.93c.72.42 1.61.42 2.32 0l1.61-.93h.44l-1.95 1.12Z"></path><path d="m35.83 40.19-.17-.29zm-2.54 0-.17.29zm-1.94-1.12v-.33c-.15 0-.28.1-.32.25s.02.3.15.37zm.44 0 .17-.29a.33.33 0 0 0-.17-.04zm1.62.93-.17.29zm2.31 0 .17.29zm1.63-.93v-.33c-.06 0-.12.02-.17.04zm.44 0 .17.29c.13-.08.19-.23.15-.37a.33.33 0 0 0-.32-.25zm-1.95 1.12-.17-.29c-.68.4-1.53.4-2.21 0l-.17.29-.17.29c.89.51 1.99.51 2.88 0l-.17-.29zm-2.55 0 .17-.29-1.94-1.12-.17.29-.17.29 1.94 1.12zm-1.94-1.12v.33h.44v-.66h-.44zm.44 0-.17.29 1.61.93.17-.29.17-.29-1.61-.93zm1.62.93-.17.29c.82.47 1.83.47 2.66 0l-.17-.29-.17-.29c-.62.36-1.38.36-1.99 0l-.17.29zm2.31 0 .17.29 1.61-.93-.17-.29-.17-.29-1.61.93zm1.63-.93v.33h.44v-.66h-.44zm.44 0-.17-.29-1.95 1.12.17.29.17.29 1.95-1.12z"></path><path d="M33.41 40.01c.79.45 1.27 1.29 1.27 2.2v2.24l-.22-.38v-1.86c0-.83-.44-1.6-1.16-2.01l-1.61-.93-.22-.38z"></path><path d="m33.41 40.01.17-.29zm1.27 2.2h.33zm0 2.24-.29.17c.08.13.23.19.37.15a.33.33 0 0 0 .25-.32zm-.22-.38h-.33c0 .06.02.12.04.17zm0-1.86h.33zM33.3 40.2l.17-.29zm-1.61-.93-.29.17s.07.09.12.12zm-.22-.39.17-.29a.32.32 0 0 0-.4.05c-.11.1-.13.27-.05.4l.29-.17h-.01Zm1.94 1.13-.17.29c.68.4 1.11 1.13 1.11 1.92h.66c0-1.03-.55-1.98-1.44-2.49l-.17.29h.01Zm1.27 2.2h-.33v2.24h.66v-2.24zm0 2.24.29-.17-.22-.38-.29.17-.29.17.22.38zm-.22-.38h.33v-1.86h-.66v1.86zm0-1.86h.33c0-.95-.51-1.83-1.33-2.3l-.17.29-.17.29c.62.36 1 1.01 1 1.73h.34ZM33.3 40.2l.17-.29-1.61-.93-.17.29-.17.29 1.61.93zm-1.61-.93.29-.17-.22-.38-.29.17-.29.17.22.38zm-.22-.39-.17.29 1.94 1.12.17-.29.17-.29-1.94-1.12z"></path><path d="M35.74 39.99c-.79.45-1.27 1.29-1.27 2.2v2.24l.22-.38v-1.86c0-.83.44-1.6 1.16-2.01l1.61-.93.22-.38z"></path><path d="m35.74 39.99-.17-.29zm-1.28 2.21h-.33zm0 2.24.29.17c-.08.13-.23.19-.37.15a.33.33 0 0 1-.25-.32zm.23-.38h.33c0 .06-.02.12-.04.17zm0-1.86h-.33zm1.16-2.02-.17-.29zm1.61-.93.29.17s-.07.09-.12.12zm.22-.38-.17-.29c.13-.08.29-.05.4.05.11.11.13.27.05.4l-.29-.17h.01Zm-1.94 1.12.17.29c-.68.4-1.11 1.13-1.11 1.92h-.66c0-1.03.55-1.98 1.44-2.49l.17.29h-.01Zm-1.28 2.21h.33v2.24h-.66V42.2zm0 2.24-.29-.17.22-.38.29.17.29.17-.22.38zm.23-.38h-.33V42.2h.66v1.86zm0-1.86h-.33c0-.95.51-1.83 1.33-2.3l.17.29.17.29c-.62.36-1 1.01-1 1.73h-.34Zm1.16-2.02-.17-.29 1.61-.93.17.29.17.29-1.61.93zm1.61-.93-.29-.17.22-.38.29.17.29.17-.22.38zm.22-.38.17.29-1.94 1.12-.17-.29-.17-.29 1.94-1.12z"></path><path fill="none" stroke="#000" stroke-linecap="round" stroke-width=".89" d="m36.81 39.46 4.86-2.81m-9.35 2.79-4.87-2.8"></path><path fill="#fb8fa7" stroke="#000" stroke-linecap="round" stroke-linejoin="round" stroke-width=".89" d="M18.55 31.6c-.68-.4-1.11-1.13-1.11-1.92v-7.34c0-.79.42-1.52 1.11-1.92l6.36-3.67c.68-.4 1.53-.4 2.21 0l6.36 3.67c.68.4 1.11 1.13 1.11 1.92v7.34c0 .79-.42 1.52-1.11 1.92l-6.36 3.67c-.68.4-1.53.4-2.21 0z"></path><path fill="#f44705" d="m24.86 25.36-6.29-3.63c-.64-.37-1.15-.07-1.15.66v7.28c0 .73.51 1.63 1.15 1.99l6.29 3.63c.64.37 1.15.07 1.15-.66v-7.28c0-.73-.51-1.63-1.15-1.99"></path><path fill="#313131" d="m27.17 25.36 6.29-3.63c.64-.37 1.15-.07 1.15.66v7.28c0 .73-.51 1.63-1.15 1.99l-6.29 3.63c-.64.37-1.15.07-1.15-.66v-7.28c0-.73.51-1.63 1.15-1.99"></path><path fill="none" stroke="#000" stroke-linecap="round" stroke-width=".89" d="M26.02 26.57v7.64"></path><path fill="none" stroke="#000" stroke-linecap="round" stroke-linejoin="round" stroke-width=".89" d="M18.55 31.6c-.68-.4-1.11-1.13-1.11-1.92v-7.34c0-.79.42-1.52 1.11-1.92l6.36-3.67c.68-.4 1.53-.4 2.21 0l6.36 3.67c.68.4 1.11 1.13 1.11 1.92v7.34c0 .79-.42 1.52-1.11 1.92l-6.36 3.67c-.68.4-1.53.4-2.21 0z"></path><path d="M27.29 25.41c-.79.45-1.76.45-2.54 0l-1.94-1.12h.44l1.61.93c.72.42 1.61.42 2.32 0l1.61-.93h.44l-1.95 1.12z"></path><path d="m27.29 25.41.17.29zm-2.55 0-.17.29zm-1.94-1.13v-.33c-.15 0-.28.1-.32.25s.02.3.15.37zm.44 0 .17-.29a.33.33 0 0 0-.17-.04zm1.62.93-.17.29zm2.32 0 .17.29zm1.61-.93v-.33c-.06 0-.12.02-.17.04zm.45 0 .17.29c.13-.08.19-.23.15-.37a.33.33 0 0 0-.32-.25zm-1.95 1.13-.17-.29c-.68.4-1.53.4-2.21 0l-.17.29-.17.29c.89.51 1.99.51 2.88 0l-.17-.29Zm-2.55 0 .17-.29L22.97 24l-.17.29-.17.29 1.94 1.12zm-1.94-1.13v.33h.44v-.66h-.44zm.44 0-.17.29 1.61.93.17-.29.17-.29-1.61-.93zm1.62.93-.17.29c.82.47 1.83.47 2.66 0l-.17-.29-.17-.29c-.62.36-1.38.36-1.99 0l-.17.29zm2.32 0 .17.29 1.61-.93-.17-.29-.17-.29-1.61.93zm1.61-.93v.33h.44v-.66h-.44zm.45 0-.17-.29-1.95 1.12.17.29.17.29 1.95-1.12z"></path><path d="M24.86 25.22c.79.45 1.27 1.29 1.27 2.2v2.25l-.22-.38v-1.86c0-.83-.44-1.6-1.16-2.01l-1.61-.93-.22-.38 1.95 1.12h-.01Z"></path><path d="m24.86 25.22.17-.29zm1.28 2.21h.33zm0 2.24-.29.17c.08.13.23.19.37.15a.33.33 0 0 0 .25-.32zm-.21-.38h-.33c0 .06.02.12.04.17zm0-1.86h.33zm-1.17-2.02.17-.29zm-1.61-.93-.29.17s.07.09.12.12zm-.22-.38.17-.29a.32.32 0 0 0-.4.05c-.11.1-.13.27-.05.4l.29-.17h-.01Zm1.94 1.12-.17.29c.68.4 1.11 1.13 1.11 1.92h.66c0-1.03-.55-1.98-1.44-2.49l-.17.29h.01Zm1.28 2.21h-.33v2.25h.66v-2.25zm0 2.24.29-.17-.22-.38-.29.17-.29.17.22.38zm-.22-.38h.33v-1.86h-.66v1.86zm0-1.86h.33c0-.95-.51-1.83-1.33-2.3l-.17.29-.17.29c.62.36 1 1.01 1 1.73h.34Zm-1.17-2.02.17-.29-1.61-.93-.17.29-.17.29 1.61.93zm-1.61-.93.29-.17-.22-.38-.29.17-.29.17.22.38zm-.22-.38-.17.29 1.95 1.12.17-.29.17-.29-1.95-1.12z"></path><path d="M27.19 25.21c-.79.45-1.27 1.29-1.27 2.2v2.24l.22-.38v-1.86c0-.83.44-1.6 1.16-2.01l1.61-.93.22-.38z"></path><path d="m27.19 25.21-.17-.29zm-1.27 2.2h-.33zm0 2.24.29.17c-.08.13-.23.19-.37.15a.33.33 0 0 1-.25-.32zm.22-.38h.33c0 .06-.02.12-.04.17zm0-1.86h-.33zm1.16-2.01-.17-.29zm1.61-.93.29.17q-.045.075-.12.12zm.23-.38-.17-.29c.13-.08.29-.05.4.05.11.11.13.27.05.4l-.29-.17h.01Zm-1.95 1.12.17.29c-.68.4-1.11 1.13-1.11 1.92h-.66c0-1.03.55-1.98 1.44-2.49l.17.29h-.01Zm-1.27 2.2h.33v2.24h-.66v-2.24zm0 2.24-.29-.17.22-.38.29.17.29.17-.22.38zm.22-.38h-.33v-1.86h.66v1.86zm0-1.86h-.33c0-.95.51-1.83 1.33-2.3l.17.29.17.29c-.62.36-1 1.01-1 1.73h-.34Zm1.16-2.01-.17-.29 1.61-.93.17.29.17.29-1.61.93zm1.61-.93-.29-.17.22-.38.29.17.29.17-.22.38zm.23-.38.17.29-1.94 1.12-.17-.29-.17-.29 1.94-1.12z"></path><path fill="none" stroke="#000" stroke-linecap="round" stroke-width=".89" d="m28.26 24.67 4.87-2.81m-9.36 2.8-4.86-2.81"></path><path fill="#fb8fa7" stroke="#000" stroke-linecap="round" stroke-linejoin="round" stroke-width=".89" d="M18.55 21.74c-.68-.4-1.11-1.13-1.11-1.92v-7.34c0-.79.42-1.52 1.11-1.92l6.36-3.67c.68-.4 1.53-.4 2.21 0l6.36 3.67c.68.4 1.11 1.13 1.11 1.92v7.34c0 .79-.42 1.52-1.11 1.92l-6.36 3.67c-.68.4-1.53.4-2.21 0z"></path><path fill="#f44705" d="m24.86 15.5-6.29-3.63c-.64-.37-1.15-.07-1.15.66v7.28c0 .73.51 1.63 1.15 1.99l6.29 3.63c.64.37 1.15.07 1.15-.66v-7.28c0-.73-.51-1.63-1.15-1.99"></path><path fill="#313131" d="m27.17 15.5 6.29-3.63c.64-.37 1.15-.07 1.15.66v7.28c0 .73-.51 1.63-1.15 1.99l-6.29 3.63c-.64.37-1.15.07-1.15-.66v-7.28c0-.73.51-1.63 1.15-1.99"></path><path fill="none" stroke="#000" stroke-linecap="round" stroke-width=".89" d="M26.02 16.7v7.64"></path><path fill="none" stroke="#000" stroke-linecap="round" stroke-linejoin="round" stroke-width=".89" d="M18.55 21.74c-.68-.4-1.11-1.13-1.11-1.92v-7.34c0-.79.42-1.52 1.11-1.92l6.36-3.67c.68-.4 1.53-.4 2.21 0l6.36 3.67c.68.4 1.11 1.13 1.11 1.92v7.34c0 .79-.42 1.52-1.11 1.92l-6.36 3.67c-.68.4-1.53.4-2.21 0z"></path><path d="M27.29 15.54c-.79.45-1.76.45-2.54 0l-1.94-1.12h.44l1.61.93c.72.42 1.61.42 2.32 0l1.61-.93h.44l-1.95 1.12z"></path><path d="m27.29 15.54.17.29zm-2.55 0-.17.29zm-1.94-1.12v-.33c-.15 0-.28.1-.32.25s.02.3.15.37zm.44 0 .17-.29a.33.33 0 0 0-.17-.04zm1.62.93-.17.29zm2.32 0 .17.29zm1.61-.93v-.33c-.06 0-.12.02-.17.04zm.45 0 .17.29c.13-.08.19-.23.15-.37a.33.33 0 0 0-.32-.25zm-1.95 1.12-.17-.29c-.68.4-1.53.4-2.21 0l-.17.29-.17.29c.89.51 1.99.51 2.88 0l-.17-.29Zm-2.55 0 .17-.29-1.94-1.12-.17.29-.17.29 1.94 1.12zm-1.94-1.12v.33h.44v-.66h-.44zm.44 0-.17.29 1.61.93.17-.29.17-.29-1.61-.93zm1.62.93-.17.29c.82.47 1.83.47 2.66 0l-.17-.29-.17-.29c-.62.36-1.38.36-1.99 0l-.17.29zm2.32 0 .17.29 1.61-.93-.17-.29-.17-.29-1.61.93zm1.61-.93v.33h.44v-.66h-.44zm.45 0-.17-.29-1.95 1.12.17.29.17.29 1.95-1.12z"></path><path d="M24.86 15.36c.79.45 1.27 1.29 1.27 2.2v2.25l-.22-.38v-1.86c0-.83-.44-1.6-1.16-2.01l-1.61-.93-.22-.38 1.95 1.12h-.01Z"></path><path d="m24.86 15.36.17-.29zm1.28 2.2h.33zm0 2.25-.29.17c.08.13.23.19.37.15a.33.33 0 0 0 .25-.32zm-.21-.38h-.33c0 .06.02.12.04.17zm0-1.87h.33zm-1.17-2.01.17-.29zm-1.61-.93-.29.17q.045.075.12.12zm-.22-.38.17-.29a.32.32 0 0 0-.4.05c-.11.1-.13.27-.05.4l.29-.17h-.01Zm1.94 1.12-.17.29c.68.4 1.11 1.13 1.11 1.92h.66c0-1.03-.55-1.98-1.44-2.49l-.17.29h.01Zm1.28 2.2h-.33v2.25h.66v-2.25zm0 2.25.29-.17-.22-.38-.29.17-.29.17.22.38zm-.22-.38h.33v-1.86h-.66v1.86zm0-1.87h.33c0-.95-.51-1.83-1.33-2.3l-.17.29-.17.29c.62.36 1 1.01 1 1.73h.34Zm-1.17-2.01.17-.29-1.61-.93-.17.29-.17.29 1.61.93zm-1.61-.93.29-.17-.22-.38-.29.17-.29.17.22.38zm-.22-.38-.17.29 1.95 1.12.17-.29.17-.29-1.95-1.12z"></path><path d="M27.19 15.35c-.79.45-1.27 1.29-1.27 2.2v2.24l.22-.38v-1.86c0-.83.44-1.6 1.16-2.01l1.61-.93.22-.38z"></path><path d="m27.19 15.35-.17-.29zm-1.27 2.2h-.33zm0 2.24.29.17c-.08.13-.23.19-.37.15a.33.33 0 0 1-.25-.32zm.22-.38h.33c0 .06-.02.12-.04.17zm0-1.86h-.33zm1.16-2.01-.17-.29zm1.61-.93.29.17q-.045.075-.12.12zm.23-.39-.17-.29c.13-.08.29-.05.4.05.11.11.13.27.05.4l-.29-.17h.01Zm-1.95 1.13.17.29c-.68.4-1.11 1.13-1.11 1.92h-.66c0-1.03.55-1.98 1.44-2.49l.17.29h-.01Zm-1.27 2.2h.33v2.24h-.66v-2.24zm0 2.24-.29-.17.22-.38.29.17.29.17-.22.38zm.22-.38h-.33v-1.86h.66v1.86zm0-1.86h-.33c0-.95.51-1.83 1.33-2.3l.17.29.17.29c-.62.36-1 1.01-1 1.73h-.34Zm1.16-2.01-.17-.29 1.61-.93.17.29.17.29-1.61.93zm1.61-.93-.29-.17.22-.38.29.17.29.17-.22.38zm.23-.39.17.29-1.94 1.12-.17-.29-.17-.29 1.94-1.12z"></path><path fill="none" stroke="#000" stroke-linecap="round" stroke-width=".89" d="M28.26 14.81 33.13 12m-9.36 2.8-4.86-2.81"></path><path fill="#fffbef" d="M37.28 47.16c-.28.16-.52.25-.72.28s-.37 0-.49-.1c-.13-.09-.21-.24-.27-.44q-.06-.255-.06-.6c0-.07.05-.15.1-.2l.56-.46c.09-.07.17-.04.17.06 0 .15.03.28.06.38.05.15.13.23.25.26.11.03.25 0 .42-.1.24-.13.43-.33.53-.58.05-.12.08-.25.08-.38 0-.17-.04-.29-.11-.36a.52.52 0 0 0-.31-.12h-.44c-.16 0-.32.02-.47.02s-.29-.03-.42-.08-.22-.15-.3-.29c-.07-.14-.11-.33-.11-.58 0-.31.06-.61.17-.91.25-.63.7-1.15 1.29-1.48.33-.19.61-.28.83-.26s.39.13.5.32q.15.255.15.72c0 .07-.05.16-.11.21l-.55.45c-.09.07-.17.04-.17-.06 0-.07-.01-.14-.02-.2a.6.6 0 0 0-.12-.26.29.29 0 0 0-.21-.09c-.08 0-.19.03-.3.1q-.18.105-.3.24c-.08.1-.15.2-.2.31s-.07.22-.07.33c0 .15.04.25.11.31.08.06.18.09.3.08.13 0 .26 0 .4-.03.16 0 .32-.02.48-.02s.31.04.44.09c.13.06.24.16.32.32.08.15.12.37.12.65 0 .3-.06.61-.17.91s-.28.58-.51.85c-.23.26-.51.5-.86.69v.02Zm4.69-7.5c0 .09-.06.19-.14.23l-.73.42c-.07.04-.14.15-.14.23v4.22c0 .09-.06.19-.14.23l-.65.38c-.07.04-.14 0-.14-.08v-4.22c0-.09-.06-.12-.14-.08l-.72.42c-.07.04-.14 0-.14-.08v-.64c0-.09.06-.19.14-.23l2.64-1.53c.07-.04.14 0 .14.08v.64h.02Z"></path></svg> 